<?xml version="1.0" standalone="no"?>
<!DOCTYPE svg PUBLIC "-//W3C//DTD SVG 20010904//EN"
 "http://www.w3.org/TR/2001/REC-SVG-20010904/DTD/svg10.dtd">
<svg version="1.0" xmlns="http://www.w3.org/2000/svg"
 width="260.000000pt" height="260.000000pt" viewBox="0 0 260.000000 260.000000"
 preserveAspectRatio="xMidYMid meet">
<metadata>
Created by potrace 1.14, written by Peter Selinger 2001-2017
</metadata>
<g transform="translate(0.000000,260.000000) scale(0.100000,-0.100000)"
fill="#000000" stroke="none">
<path d="M1209 2399 c-105 -10 -225 -47 -300 -93 l-56 -34 -59 20 c-139 47
-302 -16 -461 -178 -205 -210 -346 -478 -330 -629 7 -68 40 -136 92 -190 49
-50 98 -77 173 -95 28 -6 52 -13 52 -13 0 -1 -7 -38 -15 -82 -20 -102 -20
-317 0 -410 20 -93 82 -217 145 -287 64 -72 176 -147 278 -187 297 -114 847
-114 1144 0 102 40 214 115 278 187 63 70 125 194 145 287 20 93 20 308 0 410
-8 44 -15 81 -15 82 0 0 24 7 53 13 74 18 123 45 172 95 52 54 85 122 92 190
16 151 -125 419 -330 629 -159 162 -322 225 -461 178 l-59 -20 -56 34 c-71 44
-190 82 -278 89 -37 3 -79 7 -93 9 -14 1 -64 -1 -111 -5z m315 -192 c148 -55
238 -145 330 -332 75 -150 253 -647 281 -783 21 -98 20 -298 0 -376 -60 -229
-254 -365 -578 -406 -45 -5 -103 -10 -129 -10 l-48 0 0 158 0 158 65 43 c108
71 176 178 176 277 0 79 -32 128 -111 170 -30 17 -58 19 -210 19 -152 0 -180
-2 -210 -19 -79 -42 -111 -91 -111 -170 0 -99 68 -206 176 -277 l65 -43 0
-158 0 -158 -48 0 c-26 0 -84 5 -129 10 -324 41 -517 176 -578 406 -21 78 -21
276 0 375 16 80 41 158 155 474 148 413 253 566 439 636 89 33 128 38 266 35
110 -3 141 -7 199 -29z m-811 -69 c-4 -7 -25 -40 -47 -72 -58 -89 -115 -217
-196 -446 -97 -273 -96 -270 -123 -270 -80 0 -170 66 -182 134 -31 165 287
596 485 657 41 12 72 11 63 -3z m1300 -25 c60 -30 189 -155 265 -258 101 -136
171 -300 157 -371 -12 -68 -102 -134 -182 -134 -27 0 -26 -3 -123 270 -81 229
-138 357 -196 446 -22 32 -44 65 -48 73 -14 22 65 6 127 -26z m-579 -1153 c35
-13 34 -46 -4 -98 -36 -50 -96 -92 -131 -92 -54 0 -159 104 -159 158 0 14 8
26 23 32 30 12 239 12 271 0z"/>
<path d="M988 1545 c-31 -17 -58 -62 -58 -95 0 -29 27 -77 49 -90 28 -15 93
-12 117 5 50 34 55 122 10 164 -30 28 -83 36 -118 16z"/>
<path d="M1524 1550 c-57 -23 -83 -109 -48 -159 42 -60 138 -58 174 2 24 39
25 68 5 107 -25 48 -82 70 -131 50z"/>
</g>
</svg>
